<?xml version="1.0" standalone="no"?>
<!DOCTYPE svg PUBLIC "-//W3C//DTD SVG 20010904//EN"
 "http://www.w3.org/TR/2001/REC-SVG-20010904/DTD/svg10.dtd">
<svg version="1.0" xmlns="http://www.w3.org/2000/svg"
 width="1876.000000pt" height="1616.000000pt" viewBox="0 0 1876.000000 1616.000000"
 preserveAspectRatio="xMidYMid meet">
<metadata>
Created by potrace 1.16, written by Peter Selinger 2001-2019
</metadata>
<g transform="translate(0.000000,1616.000000) scale(0.100000,-0.100000)"
fill="#000000" stroke="none">
<path d="M13705 11966 c-39 -17 -70 -52 -90 -98 -12 -31 -15 -91 -15 -360 0
-293 2 -327 19 -363 21 -46 54 -79 94 -94 18 -7 133 -11 303 -11 l274 0 0 470
0 470 -277 0 c-209 -1 -285 -4 -308 -14z"/>
<path d="M18200 10959 l0 -486 -127 -6 c-71 -4 -161 -7 -202 -7 l-74 0 -566
-327 c-311 -179 -579 -335 -594 -346 l-28 -19 -67 36 c-37 19 -312 165 -612
323 l-545 288 -3 47 -3 48 -48 -25 c-27 -13 -52 -21 -56 -17 -12 10 -30 42
436 -765 l433 -753 876 0 875 0 308 533 307 533 0 222 0 222 125 0 c69 0 125
4 125 8 0 7 -241 428 -548 957 -9 15 -11 -95 -12 -466z"/>
<path d="M13906 8900 c-53 -16 -105 -61 -131 -113 l-25 -51 0 -463 c0 -516 -1
-505 68 -576 64 -65 79 -67 576 -67 474 1 482 2 550 54 19 14 45 47 57 73 24
48 24 50 27 475 2 272 -1 448 -7 485 -15 79 -53 131 -120 166 l-55 27 -455 -1
c-251 0 -469 -5 -485 -9z"/>
<path d="M5328 8724 c-62 -33 -58 139 -58 -2285 l0 -2211 -117 7 c-246 14
-472 56 -687 126 -144 48 -408 175 -526 254 -190 128 -366 291 -487 452 -31
40 -58 73 -62 73 -12 -1 -774 -1272 -765 -1279 5 -3 68 -45 139 -92 717 -474
1510 -786 2358 -929 565 -95 1162 -110 1747 -44 1224 138 2400 662 3343 1488
l87 77 -2 2152 c-3 2344 1 2175 -59 2211 -38 23 -90 20 -128 -6 -17 -13 -477
-536 -1022 -1163 -545 -627 -1005 -1152 -1023 -1166 -168 -137 -414 -135 -571
4 -22 19 -485 548 -1030 1175 -544 627 -1002 1147 -1017 1156 -32 20 -84 20
-120 0z"/>
<path d="M12470 7085 c0 -141 4 -245 9 -245 5 0 62 -99 127 -220 64 -121 120
-220 125 -220 4 0 58 99 121 220 l113 219 173 1 c94 0 172 -2 172 -4 0 -2 -35
-71 -79 -152 -43 -82 -135 -258 -205 -391 l-126 -242 0 -175 0 -176 -170 0
-170 0 0 170 0 170 -35 68 c-19 37 -39 74 -44 82 -8 10 -11 -146 -11 -503 l0
-518 513 3 512 3 67 33 c77 38 130 92 167 171 l26 56 0 815 0 815 -27 57 c-30
65 -98 137 -155 166 -75 38 -128 42 -623 42 l-480 0 0 -245z"/>
<path d="M350 6855 c0 -3 21 -61 46 -128 275 -723 681 -1384 1212 -1971 l117
-128 3 63 c4 107 -56 1621 -65 1629 -4 4 -18 11 -30 15 l-23 6 -1 -503 -2
-503 -18 455 c-10 250 -19 482 -21 514 l-3 60 -115 46 c-63 26 -335 138 -604
249 -268 110 -490 201 -492 201 -2 0 -4 -2 -4 -5z"/>
</g>
</svg>
